<?xml version="1.0" encoding="UTF-8"?><svg id="Layer_1" xmlns="http://www.w3.org/2000/svg" viewBox="0 0 710.24 291.66"><g><path d="M142.24,140.28c-15.55-3.7-24.88-6.53-23.47-14.53,1.5-8.51,10.67-13.39,25.15-13.39,11.13,0,22.26,3.33,32.21,9.62l.88,.55,13.72-23.54-.75-.53c-10.03-7.12-25.27-11.2-41.81-11.2s-31.34,4.02-42.06,11.62c-9.9,7.02-16.18,16.68-18.17,27.93-4.93,27.94,19.65,33.89,39.4,38.68,13.42,3.25,25.02,6.06,23.48,14.8-1.42,8.06-10.42,12.5-25.35,12.5-14.11,0-28.72-4.88-38.11-12.74l-.88-.74-14.65,23.36,.63,.56c9.92,8.9,29.06,14.65,48.76,14.65,32.56,0,56.33-15.46,60.54-39.38,4.88-27.65-19.75-33.52-39.53-38.23Z" fill="#009de0"/><path d="M178.78,25.64c-58.18,5.54-110.01,50.27-127.12,104.97-13.09,38.53-17.05,88.69,16.72,118.01,11.2,9.55,25.42,16.02,40.23,17.72-15.38-.2-30.89-4.04-44.18-12.26-24.81-14.7-38.52-43.01-41.25-71.1-2.72-24.2,.89-49.39,12.02-71.24C61.32,59.3,119.26,20.31,178.78,25.64h0Z" fill="#009de0"/><path d="M177.93,44.19c12.15,6.18,41.01,40.54,41.01,103.94,0,90.11-85.05,114.98-90.13,117.8l561.79-117.57L177.93,44.19Z" fill="#009de0"/></g><g><g><path d="M288.13,132.83c-3.43-4.87-9.23-7.54-16.48-7.54-15.79,0-28.78,11.11-31.59,27.01-1.39,7.87,.13,14.92,4.26,19.85,4.02,4.8,10.39,7.44,17.93,7.44s14.3-2.76,19.4-7.82l-1.27,7.23h10.08l9.38-53.21h-10.47l-1.24,7.04Zm-3.34,19.48c-1.87,10.6-10.21,18.01-20.29,18.01-4.67,0-8.63-1.65-11.15-4.66-2.74-3.26-3.69-7.82-2.74-13.18,1.86-10.55,10.24-17.91,20.37-17.91,4.65,0,8.59,1.65,11.09,4.63,2.72,3.24,3.66,7.77,2.72,13.1Z" fill="#fff"/><path d="M319.62,125.79l.7-3.95c1.02-5.81,4.25-8.75,9.6-8.75,2.46,0,4.78,.83,6.53,2.34l.46,.4,4.63-8.07-.3-.27c-2.28-2.05-5.98-3.18-10.44-3.18-11.06,0-18.8,6.45-20.7,17.26l-10.13,57.43h10.47l7.83-44.43h15.98l1.55-8.78h-16.17Z" fill="#fff"/><path d="M351.16,116.74c3.89,0,7.33-2.89,8.01-6.72,.31-1.73-.09-3.36-1.12-4.58-1.09-1.3-2.76-2.01-4.72-2.01-3.83,0-7.34,2.91-7.99,6.62-.31,1.79,.09,3.45,1.13,4.69,1.08,1.29,2.75,2,4.69,2Z" fill="#fff"/><polygon points="334.85 179 345.33 179 354.71 125.79 344.24 125.79 334.85 179" fill="#fff"/><path d="M392.75,135.46l.47,.06,1.8-10.22h-.6c-8.47,0-15.28,2.73-19.81,7.91l1.31-7.42h-10.08l-9.38,53.21h10.47l4.66-26.42c1.93-10.95,8.88-17.22,19.07-17.22,.69,0,1.35,0,2.09,.1Z" fill="#fff"/><path d="M418.82,148.31c-6.75-1.21-12.58-2.26-11.71-7.16,.75-4.24,5.64-6.78,13.09-6.78,5.64,0,10.37,1.36,14.05,4.04l.41,.3,5.94-8.3-.4-.29c-3.98-2.93-11.23-4.83-18.48-4.83-13.48,0-23.31,6.31-25.03,16.08-.66,3.72-.17,6.67,1.48,9.01,3.19,4.52,10.13,5.71,16.25,6.75,4.77,.81,9.28,1.58,10.82,3.78,.54,.77,.71,1.69,.51,2.82-.78,4.43-5.21,6.68-13.17,6.68-6.4,0-13.09-2.08-17.05-5.31l-.42-.34-5.82,8.28,.32,.3c4.03,3.73,12.41,6.24,20.84,6.24,14.18,0,24.05-6.08,25.78-15.88,2.1-11.9-8.72-13.84-17.41-15.4Z" fill="#fff"/></g><path d="M447.62,132.85c0-5.78,4.66-10.39,10.39-10.39s10.39,4.61,10.39,10.39-4.65,10.39-10.44,10.39-10.34-4.66-10.34-10.39Zm1.62,0c0,4.8,3.87,8.77,8.72,8.77s8.77-3.97,8.77-8.77-3.92-8.72-8.77-8.72-8.72,3.82-8.72,8.72Zm8.28,1.27h-2.06l-1.03,4.7h-1.76l2.6-11.91h4.61c2.16,0,3.53,1.42,3.53,3.14,0,2.25-1.96,4.02-3.92,4.02l2.16,4.75h-2.06l-2.06-4.7Zm-.78-5.73l-.93,4.21h3.09c1.67,0,2.65-1.13,2.65-2.45,0-.98-.59-1.76-2.06-1.76h-2.74Z" fill="#fff"/></g></svg>